<?xml version="1.0" standalone="no"?>
<!DOCTYPE svg PUBLIC "-//W3C//DTD SVG 20010904//EN"
 "http://www.w3.org/TR/2001/REC-SVG-20010904/DTD/svg10.dtd">
<svg version="1.0" xmlns="http://www.w3.org/2000/svg"
 width="180.000000pt" height="180.000000pt" viewBox="0 0 180.000000 180.000000"
 preserveAspectRatio="xMidYMid meet">

<g transform="translate(0.000000,180.000000) scale(0.100000,-0.100000)"
fill="#000000" stroke="none">
<path d="M244 1791 c-47 -12 -133 -62 -160 -94 -14 -17 -37 -53 -52 -81 l-27
-51 0 -665 0 -665 34 -63 c38 -70 69 -100 145 -140 l51 -27 665 0 665 0 45 23
c72 35 114 75 151 144 l34 63 3 606 c2 391 -1 615 -7 632 -9 22 -17 27 -46 27
-20 0 -49 -7 -65 -15 -16 -8 -35 -12 -44 -9 -16 6 -29 32 -21 44 3 4 -1 13 -9
19 -11 9 -20 5 -45 -19 -37 -37 -37 -36 -11 25 25 58 25 57 -5 43 -14 -6 -25
-15 -25 -19 0 -9 -66 -6 -76 4 -4 4 -9 17 -11 28 -2 14 1 18 9 13 9 -6 9 -3 0
9 -8 9 -11 21 -7 27 3 5 1 10 -4 10 -6 0 -10 5 -8 12 1 7 -8 17 -21 23 -12 5
-20 16 -17 22 2 7 1 13 -3 13 -4 0 -9 12 -10 27 -1 15 -8 30 -15 35 -15 10
-1071 9 -1113 -1z m899 -92 c-10 -17 -31 -45 -46 -62 -17 -19 -11 -6 14 31 46
66 62 82 32 31z m-3 -52 c0 -2 -12 -14 -27 -28 l-28 -24 24 28 c23 25 31 32
31 24z m-90 -55 c0 -8 -53 -42 -66 -42 -5 0 7 11 26 25 40 28 40 28 40 17z
m290 -142 c0 -5 -7 -7 -15 -4 -8 4 -15 8 -15 10 0 2 7 4 15 4 8 0 15 -4 15
-10z m-363 -40 c18 -10 41 -37 52 -58 11 -21 30 -43 43 -49 23 -11 22 -11 -10
-18 -22 -5 -29 -11 -24 -19 5 -6 12 -23 16 -38 3 -15 15 -36 27 -46 18 -18 18
-20 3 -26 -9 -4 -25 -4 -35 -1 -33 11 -23 -32 11 -50 34 -18 37 -24 13 -24
-10 0 -33 -3 -50 -7 -43 -8 -52 15 -40 104 7 54 6 75 -7 105 -10 25 -20 36
-27 31 -8 -4 -9 -3 -5 4 9 16 -31 35 -60 28 -25 -7 -49 -40 -39 -56 9 -14 38
-12 54 3 11 10 12 8 2 -9 -11 -24 -50 -38 -76 -28 -9 4 -24 -1 -35 -11 -11
-10 -26 -15 -35 -12 -17 7 -21 57 -5 57 6 0 33 21 61 47 34 32 46 50 39 57
-16 16 -12 28 8 22 9 -3 24 -1 32 4 23 15 52 12 87 -10z m-97 -194 c0 -8 -18
-37 -40 -65 -22 -28 -37 -51 -33 -51 5 0 34 13 66 29 31 15 57 26 57 24 0 -18
-39 -54 -73 -68 -79 -31 -94 -61 -56 -109 20 -25 27 -27 74 -24 58 3 64 -7 10
-18 -63 -12 -98 2 -133 51 -34 49 -69 62 -58 23 3 -13 6 -34 6 -46 0 -15 7
-26 18 -29 10 -2 23 -13 30 -24 10 -16 9 -24 -4 -44 l-17 -25 -13 27 c-8 16
-29 40 -46 55 -25 22 -33 38 -39 84 -11 82 22 144 59 111 40 -34 60 -28 122
35 33 33 60 64 60 69 0 5 2 9 5 9 3 0 5 -6 5 -14z m185 -246 c67 -47 105 -99
105 -144 0 -19 5 -26 19 -26 26 0 37 -18 45 -72 4 -27 12 -48 17 -48 7 0 8 15
4 39 -10 63 5 81 70 81 64 0 79 -15 90 -94 6 -43 5 -48 -10 -42 -9 3 -25 6
-35 6 -13 0 -20 9 -22 27 -2 14 -9 29 -17 31 -28 9 0 -53 46 -99 43 -44 45
-51 55 -127 16 -122 6 -132 -90 -87 -58 27 -72 50 -72 121 0 43 1 44 28 38 36
-9 40 -13 44 -53 2 -19 8 -36 14 -38 6 -2 9 11 6 34 -3 30 -14 48 -51 83 -26
25 -50 52 -53 60 -13 38 -18 -6 -10 -106 5 -60 8 -110 7 -111 0 -1 -18 2 -38
8 -32 9 -37 14 -37 39 0 16 -4 32 -10 35 -6 4 -10 -7 -10 -25 0 -29 -2 -31
-32 -28 -41 4 -46 23 -49 189 -3 151 -3 150 -98 167 -92 16 -102 33 -15 26 42
-4 89 -15 120 -30 68 -32 86 -30 47 6 -38 34 -88 50 -163 50 -64 1 -128 14
-144 30 -8 8 -3 8 19 0 19 -8 59 -10 112 -5 85 6 135 -6 175 -42 10 -9 18 -11
18 -6 0 17 -53 66 -103 95 -52 30 -74 59 -83 109 l-6 34 21 -40 c13 -26 44
-56 86 -85z m-519 -148 c19 -18 18 -42 -1 -42 -9 0 -38 -11 -65 -25 -27 -14
-53 -25 -57 -25 -4 0 -16 19 -25 42 l-18 41 21 -19 c17 -16 22 -16 29 -4 6 8
10 28 10 44 l0 29 22 -29 c12 -16 22 -30 23 -31 0 -1 11 0 22 3 17 5 21 12 19
33 -2 14 -1 20 1 12 3 -8 11 -21 19 -29z m180 -44 c-3 -13 -6 -26 -6 -30 0 -5
-7 -8 -15 -8 -8 0 -15 -1 -15 -2 -1 -2 -5 -61 -10 -132 -4 -70 -12 -132 -17
-136 -4 -4 -21 -10 -36 -14 l-29 -7 6 88 c4 48 9 114 12 146 5 52 4 57 -13 57
-16 0 -19 6 -15 30 l4 30 70 0 c68 0 70 -1 64 -22z m144 -3 c0 -21 -5 -25 -30
-25 -28 0 -30 -3 -30 -35 0 -31 3 -35 25 -35 21 0 25 -5 25 -30 0 -25 -4 -30
-25 -30 -22 0 -25 -4 -25 -40 0 -36 3 -40 25 -40 20 0 25 -5 25 -25 0 -18 -5
-25 -19 -25 -10 0 -39 -3 -65 -6 l-46 -7 6 139 c8 196 3 184 74 184 57 0 60
-1 60 -25z m95 -13 c10 -64 26 -74 23 -14 l-3 52 32 0 c31 0 32 -1 37 -52 3
-29 7 -102 9 -161 l3 -108 -36 6 c-48 9 -48 10 -56 60 -9 61 -22 57 -16 -5 l5
-50 -42 0 -41 0 0 155 0 155 39 0 c38 0 40 -2 46 -38z m-404 -63 c-1 -30 -6
-94 -11 -144 -6 -49 -10 -97 -10 -106 0 -9 -15 -20 -36 -27 l-36 -11 5 35 c4
24 2 34 -7 34 -8 0 -16 -17 -20 -38 -4 -29 -12 -42 -32 -51 -15 -6 -28 -10
-31 -8 -4 5 15 269 23 305 2 13 12 22 22 22 10 0 24 6 31 13 11 10 12 -4 6
-80 -4 -57 -3 -93 3 -93 12 0 22 48 22 104 0 59 9 82 33 94 35 17 41 9 38 -49z
m1139 -62 c-14 -6 -52 -24 -85 -40 -33 -16 -55 -25 -50 -19 16 16 129 72 145
71 8 0 4 -5 -10 -12z m-800 -277 c0 -5 -5 -10 -11 -10 -5 0 -7 5 -4 10 3 6 8
10 11 10 2 0 4 -4 4 -10z m200 -290 c0 -5 -2 -10 -4 -10 -3 0 -8 5 -11 10 -3
6 -1 10 4 10 6 0 11 -4 11 -10z"/>
<path d="M946 1359 c36 -40 54 -86 55 -141 1 -52 1 -53 9 -14 13 66 -17 143
-64 168 l-21 11 21 -24z"/>
<path d="M644 1065 c-8 -19 4 -103 15 -110 5 -2 4 16 0 42 -5 26 -7 55 -3 65
7 22 -4 24 -12 3z"/>
<path d="M1150 647 c0 -41 4 -57 13 -57 10 0 12 12 7 50 -9 70 -20 74 -20 7z"/>
<path d="M495 790 l-20 -9 20 0 c11 0 27 4 35 9 13 9 13 10 0 9 -8 0 -24 -4
-35 -9z"/>
<path d="M1445 1580 c3 -5 8 -10 11 -10 2 0 4 5 4 10 0 6 -5 10 -11 10 -5 0
-7 -4 -4 -10z"/>
</g>
</svg>
